<svg xmlns="http://www.w3.org/2000/svg" viewBox="0 0 600 300" class="horseRaceGraphic">
    <path xmlns="http://www.w3.org/2000/svg"
        d="M197.177 47.176c-5.826 5.435-8.771 4.75-11.515-2.676-.204-.55-1.258-.212-2.345.75-2.493 2.21-3.957 2.215-5.185.021-.9-1.607-1.098-1.613-2.8-.085-1.008.905-3.632 1.968-5.832 2.364-3.811.684-13.102 6.438-14.8 9.166-.44.706-1.651 1.284-2.693 1.284C149.932 58 136 69.526 136 71.243c0 .586-1.8 2.606-4 4.489s-4 3.911-4 4.506c0 .594-2.505 3.822-5.567 7.172A1025.94 1025.94 0 0 0 112.891 98c-2.186 2.475-4.855 5.447-5.932 6.605-2.314 2.487-2.498 5.181-.545 7.969.778 1.11 1.565 3.339 1.75 4.954.259 2.263 1.023 3.142 3.336 3.837 1.65.496 3.9 1.257 5 1.691 1.1.434 3.882 1.049 6.182 1.367 3.545.491 4.276.284 4.796-1.354.635-2.001 7.148-6.266 11.522-7.545 1.375-.402 4.975-1.738 8-2.969 3.025-1.231 8.524-3.245 12.221-4.476 6.399-2.131 6.972-2.164 12-.693 6.948 2.035 9.023 3.617 13.67 10.422 2.137 3.131 5.417 7.267 7.288 9.192 1.872 1.925 4.96 5.663 6.862 8.306 1.902 2.644 5.357 7.209 7.677 10.144 3.822 4.836 7.23 12.024 7.267 15.331.008.704 1.826 4.477 4.04 8.383 2.214 3.907 4.423 8.875 4.91 11.041.486 2.166 1.672 4.809 2.635 5.873.963 1.064 1.566 2.071 1.341 2.238-2.127 1.573-15.58 8.794-19.911 10.686-3.025 1.322-6.088 2.839-6.808 3.371-1.818 1.346-3.932 6.714-4.725 11.998-.59 3.938-.234 5.221 3.112 11.204 2.078 3.716 5.667 12.181 7.976 18.812 2.309 6.63 4.816 12.377 5.572 12.77.755.394 2.723 1.358 4.373 2.143 1.65.784 5.144 2.655 7.764 4.157 6.409 3.672 21.736 7.187 21.736 4.983 0-.308-1.756-2.862-3.901-5.675-2.146-2.814-3.686-5.679-3.422-6.366.712-1.855-4.139-4.606-7.5-4.254-2.884.303-6.177-1.48-6.177-3.344 0-.525-1.363-2.318-3.029-3.984-3.236-3.236-11.385-19.249-12.442-24.449-.494-2.433-.115-3.737 1.697-5.844 2.74-3.186 7.833-4.407 18.774-4.501 4.125-.036 10.425-.682 14-1.436 3.575-.754 6.815-1.182 7.2-.951 1.19.714-.285 10.335-3.428 22.364-5.28 20.208-5.303 20.405-2.876 24.331 1.174 1.901 3.659 4.179 5.521 5.063 3.774 1.791 11.639 2.15 13.187.602 1.379-1.379 10.133-3.569 23.569-5.896 10.712-1.855 11.432-2.133 14.082-5.437 1.537-1.915 6.833-6.747 11.77-10.738 7.347-5.939 8.975-7.751 8.975-9.992 0-3.113-2.612-4.415-11.124-5.544-4.349-.577-5.272-.365-7.485 1.714-2.001 1.88-2.405 3.007-1.949 5.44.484 2.581.104 3.416-2.393 5.262-1.632 1.207-3.708 2.195-4.612 2.195-.905 0-4.635 1.526-8.291 3.391-9.5 4.848-23.336 8.729-24.485 6.869-.273-.441 1.295-3.492 3.485-6.781 2.189-3.288 7.075-11.192 10.857-17.563 3.783-6.371 8.512-13.541 10.511-15.933 3.958-4.737 11.379-8.515 19.986-10.174 2.75-.531 7.025-1.57 9.5-2.309 2.475-.74 6.189-1.626 8.253-1.968 5.387-.895 16.636-5.88 25.212-11.172 4.068-2.51 7.88-4.265 8.472-3.899.593.366 1.799 2.062 2.681 3.768 1.723 3.331 1.577 5.847-1.059 18.271-.817 3.85-1.502 9.181-1.522 11.846-.039 5.098-2.241 13.901-4.617 18.455-.774 1.484-1.41 3.227-1.414 3.872-.008 1.632-4.93 7.324-6.345 7.34-.639.007-3.291 2.441-5.894 5.409-5.246 5.983-28.096 21.98-37.054 25.941-5.569 2.463-15.713 11.014-15.713 13.246 0 .657 1.238 1.703 2.75 2.324 1.512.621 3.875 1.783 5.25 2.582 4.176 2.427 13-.285 13-3.996 0-2.246 4.54-5.285 9.895-6.623 2.991-.748 7.225-2.803 9.5-4.613 2.258-1.795 4.403-3.268 4.767-3.273.364-.006.982 1.885 1.374 4.202.765 4.529 2.383 7.788 3.865 7.788 1.272 0 6.599-6.091 6.599-7.545 0-.652.858-2.276 1.907-3.61 1.179-1.498 1.866-3.865 1.8-6.197-.096-3.382.542-4.393 6.146-9.742 5.01-4.783 9.073-7.335 20.45-12.847 7.808-3.784 18.922-8.56 24.697-10.616 10.594-3.77 15-6.829 15-10.416 0-2.155-6.105-14.07-9.558-18.654-1.296-1.719-2.07-3.411-1.722-3.76.349-.348-.1-1.192-.998-1.873-.898-.682-2.092-2.481-2.655-3.998-.995-2.68-.79-2.908 7.205-8.046 4.525-2.908 11.14-7.047 14.698-9.198 6.609-3.994 18.644-15.21 23.068-21.498 2.239-3.183 2.477-4.541 2.63-15 .165-11.32.204-11.5 2.492-11.5 2.826 0 6.726 7.014 4.909 8.831-.588.588-1.069 2.077-1.069 3.31s-.45 2.519-1 2.859c-1.637 1.011-1.209 12.757.557 15.277 1.938 2.767 4.834 3.031 3.988.364-.676-2.129.239-5.141 1.562-5.141.491 0 .908 1.012.926 2.25.041 2.722 3.207 6.75 5.308 6.75.836 0 1.664-1.012 1.839-2.25.459-3.232 2.985-2.772 4.121.75 1.312 4.067 2.307 5.168 5.764 6.373l2.95 1.028-2.963-3.7c-3.306-4.13-5.444-12.827-2.951-12.007.769.253 1.537 2.086 1.706 4.072.351 4.131 6.53 11.118 11.789 13.33 4.864 2.046 12.919 8.87 15.43 13.073 3.401 5.694 7.694 9.918 11.811 11.622 12.172 5.037 14.002 5.479 25.163 6.084 6.975.379 12.09.237 13-.36 1.052-.69-.892-.995-6.5-1.021-12.162-.056-23.099-4.051-30.431-11.116-6.688-6.444-9.004-10.343-7.211-12.136.958-.958 1.792-.472 3.9 2.27 4.439 5.775 11.56 11.895 14.626 12.57 1.586.35 4.736 1.477 7 2.505 4.927 2.238 21.905 2.642 29.423.702 4.517-1.166 4.581-1.232 1.693-1.76-4.754-.869-3.812-3.43 1.5-4.077 5.147-.626 11-2.748 11-3.986 0-.462-1.462-.98-3.25-1.153-5.49-.529-3.984-2.933 2.041-3.257 5.769-.311 8.12-2.16 8.177-6.431.028-2.099-.309-2.307-2.909-1.787-2.763.553-15.146-1.315-19.559-2.95-1.1-.407-3.35-1.749-5-2.98-2.557-1.909-3.961-2.182-9.5-1.85l-6.5.39-11.139-10.724c-6.126-5.898-11.399-11.511-11.718-12.474-.319-.963-1.203-1.75-1.964-1.75-.761 0-6.316-2.421-12.344-5.379-6.029-2.959-12.324-5.679-13.989-6.045-1.666-.366-6.155-1.937-9.976-3.492-3.821-1.555-9.356-3.344-12.3-3.976-7.707-1.652-18.767-7.807-24.612-13.696-6.591-6.641-12.402-9.955-24.511-13.977l-9.913-3.293-23.58.061c-12.969.034-27.264.45-31.767.925-4.503.475-17.412 1.13-28.687 1.454-18.611.535-22.159.352-38.5-1.987-17.729-2.537-21.805-3.369-30.285-6.176-2.357-.781-5.732-1.426-7.5-1.434-3.931-.018-13.856-3.027-16.085-4.877-2.012-1.67-2.082-3.488-.194-5.055 2.537-2.105 2.93-6.772.799-9.481l-1.921-2.442-2.171 2.171c-4.483 4.483-6.779-1.142-4.565-11.181.443-2.008.206-2.297-1.514-1.847-1.211.317-3.085-.288-4.611-1.489l-2.571-2.022-2.486 2.336c-1.952 1.834-2.852 2.106-4.191 1.266-.938-.587-1.844-1.922-2.014-2.966-.169-1.044-1.313-2.636-2.541-3.537-2.149-1.578-2.394-1.49-6.473 2.315"
        fill="#83452E" fill-rule="evenodd"></path>
    <path xmlns="http://www.w3.org/2000/svg"
        d="M196.353 45.5c-.848 1.203-1.697 1.602-2.131 1-.867-1.201-4.422-1.632-3.69-.448.281.455-.398.758-1.51.675-1.112-.084-2.022-.732-2.022-1.44S186.325 44 185.5 44c-1 0-1.5 1-1.5 3 0 2.667-.333 3-3 3-2.533 0-3-.389-3-2.5 0-1.375-.366-2.5-.813-2.5-1.033 0-5.418 4.695-7.596 8.133-.917 1.448-2.943 2.887-4.503 3.199-1.559.312-3.107 1.276-3.439 2.141-.492 1.282-.25 1.384 1.308.55 2.586-1.384 3.043-1.296 3.043.584 0 1.002-.553 1.395-1.468 1.044-.807-.31-1.705-.18-1.994.288-.706 1.142 2.083 2.144 3.962 1.423 1.592-.611 2 .59.75 2.209-.412.534.26-.163 1.495-1.55s2.247-2.898 2.25-3.359c.003-.461 1.917-.53 4.255-.155 3.986.641 4.126.586 2.25-.88-3.636-2.842.12-1.689 8.12 2.492 14.208 7.427 19.823 10.554 23.77 13.237 2.139 1.454 4.276 2.644 4.75 2.644.473 0 .86.675.86 1.5s-.482 1.5-1.071 1.5c-.59 0-.284.787.678 1.75 1.531 1.531 1.555 1.788.19 2.051-1.286.247-1.362.73-.429 2.742.623 1.343 1.668 2.445 2.323 2.449 1.675.011 2.912-2.291 1.486-2.766-2.218-.74-1.385-2.596 3.267-7.28 1.304-1.312 2.276-1.626 2.95-.952 1.934 1.934 4.245.975 7.164-2.97 1.618-2.187 3.392-3.994 3.942-4.016.55-.021.325-.49-.5-1.042-1.296-.867-1.227-1.22.5-2.588 1.998-1.583 1.998-1.584-.017-.988-1.759.521-1.997.168-1.859-2.759l.158-3.357-4.388 2.333c-5.299 2.818-7.832 2.273-6.889-1.483.359-1.432.955-2.833 1.324-3.114.589-.448.649-1.949.27-6.76-.055-.687-1.224-1.25-2.599-1.25-1.375 0-2.5-.477-2.5-1.059s-.419-.8-.931-.484c-.512.317-1.227.097-1.588-.488-.37-.598-2.133-.83-4.022-.53-4.136.658-6.506-.152-5.804-1.982.37-.963-.101-1.256-1.563-.975-1.151.222-2.092.092-2.092-.289 0-1.598-5.34-.547-6.647 1.307m-34.622 6.208c-2.073 1.423-3.555 2.801-3.293 3.063.261.261 2.597-.93 5.19-2.648 2.593-1.718 4.075-3.096 3.293-3.063-.781.033-3.117 1.225-5.19 2.648m30.662 17.874c.334.87.607 1.727.607 1.905 0 .349 12.681 9.734 14.75 10.916.762.436 1.25.13 1.25-.784 0-.824-2.531-3.214-5.625-5.309-3.093-2.096-6.549-4.823-7.68-6.06-2.379-2.604-4.185-2.97-3.302-.668M136.63 72.25c-1.202 4.485-.77 5.332 2.843 5.575 2.571.173 3.803-.293 4.741-1.795 1.428-2.288 3.367-2.654 4.124-.78.403 1 .52 1 .583 0 .043-.687 1.009-1.25 2.145-1.25 2.52 0 5.934-1.729 5.934-3.004 0-1.477-9.051-.374-10.732 1.308-1.355 1.354-1.849 1.313-4.642-.39-3.959-2.415-4.264-2.394-4.996.336M168 75.552c0 .853 1.005 3.298 2.234 5.433 2.331 4.05 2.177 4.985-.892 5.435-1.013.149-1.898.79-1.967 1.425-.069.635-.181 1.92-.25 2.855-.095 1.294-.403 1.422-1.29.535-.887-.887-1.432-.801-2.28.359-.694.949-2.805 1.553-5.585 1.599-4.475.075-4.401.189 1.53 2.378 4.007 1.479-1.059 1.571-5.337.097-2.271-.782-3.885-1.028-3.587-.545.298.482-.272.895-1.267.918-1.391.031-1.008.725 1.653 3l3.462 2.959-2.962-.015c-3.803-.02-5.912-1.371-5.167-3.311.751-1.959-1.553-3.896-3.668-3.084-2.055.788-2.134-1.226-.127-3.233.825-.825 1.5-2.593 1.5-3.928 0-1.336.45-2.429 1-2.429s1-.483 1-1.073c0-.591-.787-.901-1.75-.691-.963.211-1.638.919-1.5 1.573.137.655-.163 1.191-.668 1.191-1.411 0-9.076 7.673-8.37 8.378.342.342 1.391.622 2.332.622.941 0 2.271.675 2.956 1.5 1.046 1.26.865 1.513-1.128 1.579-1.304.043-1.809.306-1.122.583 2.07.836 1.404 2.522-.728 1.845-1.339-.425-2.854.184-4.685 1.882l-2.707 2.509 4.119-1.216c2.265-.669 4.448-1.546 4.851-1.949 1.578-1.577 3.4-.63 3.4 1.767 0 1.375-.45 2.5-1 2.5s-1-.46-1-1.023c0-1.427-4.697 1.791-5.44 3.726-.915 2.384-.064 2.609 3.297.871 3.686-1.906 6.143-2.023 6.143-.292 0 .705-2.137 1.867-4.75 2.583-7.978 2.187-11.794 4.446-10.646 6.303.259.42 3.098-.571 6.307-2.202 3.21-1.631 6.361-2.966 7.003-2.966.641 0 2.835-.839 4.876-1.864 2.901-1.458 6.925-1.994 18.451-2.458l14.741-.593 5.338 6.707c2.935 3.69 6.401 8.283 7.7 10.208 1.3 1.925 5.652 7.453 9.672 12.284 4.019 4.831 7.308 9.296 7.308 9.921 0 .626.742 1.957 1.648 2.959.907 1.001 1.997 4.027 2.423 6.723.53 3.353 2.195 6.933 5.269 11.331 2.471 3.535 4.643 7.745 4.827 9.355.21 1.844.841 2.819 1.706 2.636.827-.175 1.157.27.831 1.121-.298.776.756 2.985 2.342 4.909s2.613 3.768 2.283 4.098c-.33.33.449 1.689 1.73 3.02 1.533 1.593 2.399 3.794 2.535 6.441.173 3.361-.146 4.115-1.943 4.598-3.749 1.005-15.822.69-15.151-.396.343-.555-.409-1.007-1.691-1.015-1.27-.009-2.972-.435-3.783-.948-.971-.614-1.724-.525-2.21.261-.538.869-1.086.737-2.027-.49-1.196-1.561-1.569-1.522-5.188.538-3.036 1.729-4.204 3.211-5.274 6.687-2.058 6.693-1.879 9.173.978 13.517 3.737 5.681 8.768 17.846 10.686 25.839l1.654 6.888 5.428 1.989c2.985 1.094 6.102 2.553 6.927 3.241 3.006 2.509 8.548 4.783 14.883 6.109 3.563.745 6.668 1.167 6.899.936.23-.231-.561-1.462-1.758-2.736-1.198-1.274-2.922-3.565-3.831-5.091-1.18-1.98-2.734-2.948-5.423-3.378-2.236-.357-3.77-1.161-3.77-1.975 0-.755-.605-1.372-1.345-1.372-1.565 0-4.655-3.154-4.655-4.752 0-.602-1.35-2.444-3-4.094-2.83-2.83-3.001-2.877-3.017-.827-.015 1.879-3.805 6.673-5.276 6.673-1.017 0-2.708-6.391-2.751-10.399-.024-2.256-.633-6.337-1.353-9.07-1.081-4.106-1.079-5.198.012-6.288.814-.814 1.095-2.441.735-4.245-.807-4.031.18-7.253 2.697-8.809 1.166-.721 7.596-1.724 14.287-2.229 6.691-.505 15.41-1.464 19.374-2.131 7.873-1.324 8.442-1.905 9.863-10.079.358-2.062 1.052-3.75 1.54-3.75.489 0 .889-.418.889-.929 0-.998-8.541-7.071-9.945-7.071-.465 0-1.905-1.117-3.2-2.483-1.295-1.365-2.866-2.49-3.49-2.5-1.537-.023-4.598-4.832-3.848-6.045.331-.535-.551-.972-1.958-.972-2.095 0-2.559.476-2.559 2.622 0 2.21-.234 2.428-1.49 1.386-1.232-1.022-1.639-.834-2.351 1.092-.84 2.269-.901 2.24-2.401-1.136-4.634-10.429-5.867-16.161-3.758-17.464.55-.34 1-1.127 1-1.75s-.665-.259-1.477.809c-1.351 1.776-1.427 1.552-.887-2.64.415-3.222.111-5.508-1.023-7.701-.968-1.871-1.613-5.563-1.613-9.227 0-6.902 1.325-7.21 3.074-.716l1.129 4.191 2.35-2.733c1.293-1.503 2.836-2.733 3.43-2.733 1.065 0 6.716-5.893 8.371-8.729 1.309-2.245-.82-3.815-3.531-2.605-1.857.828-3.024.426-6.783-2.336-2.497-1.835-5.326-4.087-6.286-5.004-.96-.917-2.009-1.404-2.332-1.082-.322.322-2.066-.033-3.877-.789-1.81-.757-3.509-1.158-3.776-.891-.266.267.347 3.003 1.362 6.081 1.638 4.965 1.686 8.918.141 11.655-.248.439-1.277-.153-2.286-1.316-1.009-1.163-2.053-1.973-2.32-1.8-.924.602-4.793-5.169-4.157-6.199.352-.569.073-.911-.621-.76-.693.151-2.189-1.332-3.324-3.295-7.929-13.715-8.054-13.883-9.888-13.314-3.772 1.17-13.557-5.546-13.647-9.366-.043-1.839 1.413-1.524 3.471.75.995 1.1 2.36 2 3.033 2 .672 0 1.782.675 2.467 1.5 2.124 2.559 4.313 1.882 3.564-1.102-.576-2.294-6.863-11.571-10.314-15.219-.687-.727-1.25-1.91-1.25-2.628 0-.718-.67-1.862-1.489-2.542-.819-.68-1.262-1.604-.984-2.053.278-.45.041-1.105-.527-1.456-.568-.351-.777-1.052-.464-1.558.312-.505-.13-.651-.984-.324-.854.328-1.552.098-1.552-.511S170.325 74 169.5 74s-1.5.698-1.5 1.552m-31.305 6.087c-.382.382-.695 1.519-.695 2.528 0 1.008-.45 1.833-1 1.833s-1 .777-1 1.727c0 1.411.48 1.248 2.613-.886 1.936-1.935 2.375-3.039 1.695-4.255-.505-.903-1.231-1.329-1.613-.947m117.712 7.534c-3.879 3.426-6.874 4.281-14.225 4.06-1.824-.055-3.889-.575-4.589-1.156-.699-.58-3.246-1.303-5.66-1.606-2.414-.304-5.681-1.197-7.261-1.985-2.104-1.049-2.587-1.089-1.805-.147.777.937.502 2.429-1.011 5.487-2.273 4.595-1.459 7.174 2.266 7.174 1.033 0 1.878.45 1.878 1 0 1.707 2.097 1.102 3.902-1.127 1.248-1.541 2.325-1.936 3.91-1.433 1.203.382 2.188 1.174 2.188 1.759 0 .586.923 2.558 2.05 4.382 2.377 3.847 4.987 3.612 4.88-.438-.063-2.375-.158-2.44-.93-.643-.735 1.71-.87 1.746-.93.25-.038-.962-.576-1.637-1.195-1.5-.619.138-1.313-.256-1.542-.875-.588-1.59 3.175-2.078 10.167-1.32 3.3.358 5.389.717 4.643.798-.746.081-1.114.781-.817 1.555.345.897-.33 1.627-1.857 2.01-1.599.402-2.208 1.099-1.827 2.092.315.82.074 1.49-.535 1.49s-1.107.486-1.107 1.079c0 .673 1.101.838 2.923.438 2.592-.569 2.861-.409 2.383 1.421-.625 2.391 1.187 2.826 2.08.499.33-.86 1.083-1.265 1.673-.9.591.365 1.654-.13 2.363-1.099 1.61-2.202 4.578-1.248 4.578 1.472 0 1.084.45 2.25 1 2.59 1.343.83 1.231-2.698-.319-10.091-.717-3.421-.948-7.318-.527-8.891.519-1.941.198-3.875-1.046-6.299l-1.794-3.497-3.907 3.451m-55.595 2.892c-.195.585-2.258 1.319-4.584 1.631-4.521.607-5.113 1.324-2.728 3.304.825.685 1.5 1.834 1.5 2.555 0 2.389 3.691 2.532 9.476.368 4.054-1.517 5.4-2.447 4.641-3.206-.759-.759-.745-1.46.048-2.416.877-1.056.764-1.211-.524-.717-.902.347-1.641 1.036-1.641 1.531 0 .496-.9.34-2-.347s-2-1.816-2-2.509c0-1.529-1.693-1.68-2.188-.194m134.084 2.372c-.578.579-32.266 2.064-37.396 1.754-2.2-.134-5.35-.343-7-.467-2.658-.198-2.971.064-2.747 2.306.202 2.019-.403 2.802-3 3.88-1.789.743-3.792 1.277-4.451 1.188-1.348-.182-3.783 3.754-2.881 4.656.321.321-.152 1.396-1.051 2.389-1.512 1.672-1.509 1.996.051 4.377.964 1.471 1.419 3.409 1.063 4.531-.413 1.3-.076 2.168 1.001 2.582 1.425.547 1.357.906-.557 2.944-1.2 1.277-1.928 2.982-1.618 3.789.31.808-.116 1.729-.947 2.048-2.617 1.004-1.11 4.061 2.151 4.361 1.642.151 4.111.383 5.486.515s3.022.573 3.66.979c.638.405 1.875.463 2.75.127 2.127-.816 2.122 2.359-.008 4.712-1.655 1.829-1.174 3.892.907 3.892.655 0 2.389-1.501 3.853-3.336 1.464-1.835 5.15-4.595 8.191-6.134 6.732-3.406 11.528-8.049 9.948-9.629-.782-.782-1.659-.78-3.128.006-3.085 1.651-3.385 1.346-1.502-1.528 1.627-2.483 1.625-2.689-.036-3.904-1.025-.749-1.339-1.54-.756-1.9 1.531-.947.789-6.055-.903-6.21-.812-.074-2.319-.186-3.348-.25-1.549-.095-1.657-.375-.628-1.615.685-.825 1.799-1.5 2.477-1.5.678 0 3.363-2.07 5.966-4.6 4.549-4.421 4.905-4.575 9.145-3.939 2.86.429 4.412.288 4.412-.4 0-.583 1.012-1.079 2.25-1.101 2.983-.053 13.908-4.867 11.167-4.92-1.146-.022-2.281.157-2.521.397m-209.437 2.63c-.92 1.489.147 2.298 2.061 1.564.884-.339 1.327-1.07.984-1.624-.81-1.311-2.215-1.284-3.045.06m-3.709 4.69c-1.754.391-2.522 3.243-.872 3.243.999 0 3.613-2.895 3.015-3.34-.216-.161-1.18-.117-2.143.097m2.99 1.783c-3.329 3.087-3.451 3.813-.49 2.903 2.631-.808 5.902-3.958 5.023-4.837-1.004-1.004-1.671-.72-4.533 1.934m80.26-.076c-3.575 1.245-6.387 2.551-6.25 2.9.137.35.25 1.086.25 1.636 0 .55 1.274 1 2.831 1 2.019 0 3.227.739 4.21 2.577 1.857 3.47 4.789 5.029 5.581 2.966.326-.849.336-2.211.022-3.027-.313-.817.166-2.766 1.065-4.332 1.541-2.684 1.286-6.303-.428-6.085-.429.055-3.706 1.119-7.281 2.365m-97.025 3.066c-.97 1.169-1.004 2.111-.143 4 1.105 2.426 3.168 3.404 3.168 1.501 0-.532.675-.709 1.5-.393 1.772.68 2.017-1.803.465-4.704-1.245-2.326-3.259-2.489-4.99-.404m326.886 1.414c1.298 1.131 2.873 2.049 3.5 2.041 1.193-.016-.469-1.34-3.861-3.075-1.572-.804-1.495-.583.361 1.034m-311.838 4.625c-4.719 4.945-5.482 5.401-6.812 4.071-1.329-1.33-1.313-1.681.146-3.14 2.67-2.67 1.873-4.064-.857-1.5-1.375 1.292-2.5 2.945-2.5 3.674 0 .729-.483 1.326-1.073 1.326-.591 0-.928.722-.75 1.603.411 2.04 9.161 5.395 14.073 5.396 4.53.001 5.03-1.409.611-1.72-3.466-.243-5.075-1.298-3.069-2.013.908-.324.986-.829.262-1.701-.743-.895-.337-1.89 1.458-3.577 2.752-2.585 2.963-2.367 1.48 1.533-.772 2.03-.713 2.548.25 2.211.692-.242 1.135-1.139.985-1.995-.15-.856.975-2.552 2.5-3.77 2.637-2.106 2.655-2.179.385-1.48-2.162.666-2.341.489-1.888-1.876.274-1.436.412-2.611.306-2.611-.105 0-2.584 2.506-5.507 5.569M441 115.599c0 7.266 4 14.29 8.182 14.369.925.018 2.671 1.421 3.88 3.119l2.198 3.087-2.3 4.911c-2.001 4.272-2.13 5.228-.997 7.346 1.388 2.594.726 6.113-.956 5.073-.561-.346-1.007.364-1.007 1.604 0 1.224.307 1.918.683 1.542.376-.376 1.254.674 1.952 2.333 1.592 3.786 4.824 4.196 4.121.523-.288-1.507.124-2.99 1.041-3.75 1.328-1.1 1.426-.774.791 2.62-.702 3.749-.646 3.855 1.739 3.257 1.746-.438 2.644-.15 3.081.988.412 1.074 1.426 1.453 3.054 1.141 1.485-.283 2.641.063 2.957.886.285.744 1.165 1.352 1.955 1.352 1.146 0 1.329-1.186.905-5.863-.694-7.655.923-8.511 3.09-1.635 1.783 5.657 5.372 9.498 8.873 9.498 1.371 0 1.791.473 1.376 1.552-.366.955-.183 1.297.475.89 1.844-1.139 11.376 6.266 13.901 10.8 3.116 5.593 8.415 11.162 14.094 14.81 2.523 1.622 4.896 2.948 5.273 2.948 1.601 0-2.958-5.268-7.351-8.493-2.738-2.009-5.286-4.88-5.994-6.751-.677-1.791-2.273-5.281-3.548-7.756-1.274-2.475-2.463-5.85-2.642-7.5-.469-4.317 2.232-3.906 4.385.668.95 2.018 4.06 5.618 6.911 8 2.85 2.383 7.252 6.534 9.78 9.225 4.47 4.756 10.794 8.54 14.348 8.585 2.764.035 2.037-2.682-1-3.742-3.053-1.065-12.25-9.327-12.25-11.004 0-.588-.273-1.78-.607-2.65-1.157-3.016 1.521-1.566 3.08 1.668.862 1.787 4.543 5.5 8.181 8.25 3.637 2.75 7.737 5.869 9.113 6.931 3.389 2.616 24.233 3.759 24.233 1.328 0-1.506-4.546-2.725-10.25-2.748-1.513-.006-2.75-.461-2.75-1.011 0-.55 1.553-1 3.45-1 1.958 0 3.798-.621 4.254-1.435.486-.869 2.772-1.56 5.79-1.75 3.803-.24 5.067-.731 5.32-2.065.257-1.353-.351-1.75-2.682-1.75-2.946 0-4.96-1.505-3.7-2.766.349-.348 3.817-.523 7.709-.389 7.371.253 11.859-1.374 11.859-4.301 0-1.61-3.456-2.998-5.035-2.022-.579.357-1.709.105-2.511-.56-.863-.716-2.71-.961-4.519-.599-4.485.897-17.223-1.125-18.211-2.891-.453-.81-1.674-1.472-2.715-1.472-1.04 0-2.169-.45-2.509-1-.34-.55-3.066-1-6.059-1-4.509 0-5.444-.3-5.459-1.75-.019-1.961-7.11-9.73-14.291-15.659-2.604-2.15-5.287-5.032-5.963-6.404-.779-1.581-2.692-2.933-5.228-3.693-3.568-1.069-14.306-6.091-24.698-11.551-2.034-1.069-4.561-1.943-5.615-1.943-1.055 0-3.011-.86-4.347-1.911-2.233-1.757-13.637-4.626-14.591-3.671-.756.756-7.691-2.585-12.501-6.022-2.614-1.868-5.877-3.396-7.25-3.396-2.302 0-2.498.361-2.498 4.599m-24 31.773c0 .823-1.567 1.623-3.912 1.998-2.151.344-5.923 1.488-8.382 2.542-2.459 1.054-8.462 2.734-13.339 3.732-4.877.999-9.462 2.388-10.188 3.086-1.392 1.338-.895 1.63 2.212 1.298 1.784-.19 1.77-.049-.237 2.503-1.17 1.487-1.881 3.101-1.581 3.587.3.485-.183.882-1.073.882-.89 0-1.36.418-1.044.928.315.51-.333 1.216-1.441 1.567-2.657.843-2.585 2.505.107 2.505 1.774 0 1.918.247.878 1.5-1.011 1.218-.968 1.5.228 1.5 2.318 0 8.03-2.138 10.772-4.033 1.375-.95 6.55-2.73 11.5-3.957 9.414-2.333 14.584-4.169 16.728-5.941.699-.579 3.635-2.867 6.522-5.084 3.606-2.769 5.25-4.742 5.25-6.3 0-2.029-.474-2.263-4.5-2.217-2.475.028-4.5-.291-4.5-.709 0-.417-.9-.759-2-.759s-2 .617-2 1.372m27.765 1.42c-.316 1.209-1.405 2.51-2.42 2.891-1.015.381-2.371 1.396-3.014 2.255-.644.859-1.544 1.563-2 1.564-.457 0-2.181.934-3.831 2.075s-4.462 2.657-6.25 3.37c-1.788.712-3.25 1.671-3.25 2.129 0 .458-1.544 1.123-3.431 1.477-1.887.354-3.648 1.211-3.915 1.905-.266.694-2.434 1.765-4.819 2.379-6.457 1.665-15.7 7.963-15.093 10.285.267 1.021.865 1.621 1.328 1.334.464-.286.575 1.744.247 4.512-.327 2.767-.3 5.032.062 5.032.361 0 3.687-1.868 7.389-4.151 3.703-2.283 8.757-5.286 11.232-6.672 6.511-3.647 20.007-15.223 23.5-20.156 1.65-2.33 3.835-5.136 4.856-6.234 1.397-1.505 1.624-2.516.919-4.096l-.935-2.097-.575 2.198m-96.3 5.659c-1.081.817-2.888 1.5-4.015 1.517-1.128.018-2.478.432-3 .92-.903.844-10.714 4.268-20.45 7.136-2.475.73-5.429 2.147-6.564 3.151-1.136 1.004-2.564 1.825-3.173 1.825s-1.61 1.521-2.223 3.379c-.613 1.859-1.998 4.178-3.078 5.155-1.079.977-1.962 2.381-1.962 3.121 0 1.727-2.88 1.735-4.921.014-1.019-.859-3.263-1.178-6.323-.9-4.454.405-4.706.58-4.132 2.871.441 1.757.23 2.358-.756 2.149-.752-.159-1.699-.739-2.103-1.289-.455-.619-.74-.524-.75.25-.009.789-1.49 1.25-4.015 1.25-2.96 0-4-.406-4-1.563 0-.921-.719-1.456-1.75-1.303-2.801.417-12.604-2.297-11.273-3.12.858-.53.747-.906-.393-1.343-.957-.368-1.584-.081-1.584.726 0 1.936-4 6.721-5.067 6.062-.531-.329-.561.391-.072 1.74.458 1.266 3.49 3.925 6.736 5.909 3.767 2.303 5.904 4.277 5.906 5.456.002 1.129.944 2.069 2.426 2.419 2.435.575 4.179 3.017 2.154 3.017-.595 0-.97.396-.833.88.464 1.631-4.23 7.065-5.636 6.525-.896-.343-2.146 1.063-3.582 4.028-1.213 2.506-2.616 4.81-3.119 5.12-.502.311-.914 1.326-.915 2.256-.002.93-1.282 3.188-2.846 5.018-1.564 1.83-4.301 6.255-6.082 9.833-1.781 3.578-3.467 6.276-3.748 5.995-.281-.281 1.124-4.876 3.122-10.211 1.999-5.334 3.443-9.891 3.209-10.124-1.025-1.025-4.652 6.815-6.367 13.762-1.541 6.242-1.64 7.798-.56 8.807 1.045.976 1.861.794 4.008-.894 2.551-2.007 2.735-2.024 3.423-.308.657 1.64.791 1.598 1.401-.437.663-2.209 4.442-3.273 4.442-1.25 0 .55-.398 1-.883 1-.486 0-1.119.9-1.407 2-.355 1.359-1.364 2-3.148 2-1.473 0-2.892.695-3.233 1.585-.465 1.213-1.419 1.433-4.056.938-3.247-.609-3.406-.512-2.748 1.665 1.044 3.45 5.362 7.619 9.203 8.887 2.836.936 4.338.779 9.085-.95 6.194-2.257 24.675-6.125 29.262-6.125 2.216 0 4.569-1.687 10.457-7.5 4.179-4.125 7.987-7.5 8.462-7.5.475 0 1.644-.787 2.599-1.75.955-.963 3.014-2.7 4.576-3.86l2.84-2.11-5.254-.626c-4.54-.54-5.465-.349-6.796 1.409-.93 1.228-2.169 1.794-3.124 1.427-.978-.375-2.864.563-4.932 2.451-1.842 1.683-4.327 3.059-5.523 3.059-1.196 0-5.258 1.517-9.027 3.372-10.536 5.184-25.396 8.986-26.724 6.837-.342-.553 2.76-6.032 6.892-12.175 4.132-6.142 8.642-13.276 10.022-15.851 6.047-11.29 10.662-16.538 17.458-19.853 3.575-1.743 8.524-3.488 10.999-3.876 7.392-1.161 25.141-6.091 30.5-8.472 2.75-1.221 8.732-4.49 13.294-7.263 7.493-4.556 8.246-5.293 7.803-7.631-.269-1.423-.749-4.613-1.066-7.088-.559-4.369-.528-4.435 1.068-2.25 1.006 1.376 2.698 2.25 4.356 2.25 3.665 0 4.219-.804 2.433-3.53-1.376-2.1-1.349-2.341.303-2.769 1.658-.43 1.663-.479.059-.585-.962-.064-1.75-.791-1.75-1.616 0-.933-.944-1.5-2.5-1.5-1.587 0-2.5.564-2.5 1.544 0 2.459-3.331 1.261-5.035-1.812-1.412-2.547-1.691-2.649-3.5-1.281m30.66 29.899c-.658.792-2.755 1.733-4.661 2.091-1.905.357-3.464 1.158-3.464 1.779s-1.012.212-2.25-.908c-4.966-4.494-8.714-3.003-7.238 2.879.326 1.299-.331 6.507-1.46 11.575-1.128 5.067-2.052 11.28-2.052 13.807 0 2.773-1.189 7.564-3 12.086-3.012 7.523-3.63 10.341-2.266 10.341.96 0 11.617-5.316 12.266-6.118.275-.34 2.3-1.493 4.5-2.561 5.728-2.781 8.891-4.673 9.735-5.821.404-.55.741-4.52.75-8.823.013-6.761.241-7.78 1.682-7.5.917.178 2.101 1.673 2.631 3.323.529 1.65 1.594 3.727 2.366 4.616 1.502 1.729.93 9.281-.876 11.578-.517.656-3.943 2.182-7.614 3.391s-7.799 2.977-9.174 3.928c-1.375.952-4.75 2.873-7.5 4.268-2.75 1.396-6.493 3.883-8.317 5.528-3.28 2.955-3.295 3.009-1.358 4.84 1.078 1.018 2.12 2.577 2.317 3.465.29 1.309 1.932.709 8.701-3.184 9.639-5.542 24.8-12.336 37.658-16.874 4.927-1.739 9.755-3.883 10.729-4.764 2.651-2.399 2.149-6.507-1.48-12.109-5.622-8.681-10.213-16.541-11.25-19.259-1.136-2.978-3.836-5.924-5.429-5.924-.589 0-1.071-.633-1.071-1.406 0-.773-1.913-2.076-4.25-2.894-2.337-.819-4.965-1.782-5.84-2.14-.885-.362-2.12-.012-2.785.79M263.5 196c.34.55 1.068 1 1.618 1s.722-.45.382-1c-.34-.55-1.068-1-1.618-1s-.722.45-.382 1m71.466 56.541c-.703.847-5.371 4.21-10.372 7.473-5.002 3.263-10.309 6.861-11.795 7.995-1.485 1.134-5.857 3.456-9.714 5.159-7.87 3.476-8.158 4.862-1.73 8.324 3.402 1.832 3.598 1.833 7.586.035 3.489-1.574 4.452-1.655 6.52-.548 2.265 1.213 2.889.909 9.383-4.56 6.526-5.496 6.997-6.171 7.605-10.889.357-2.767 1.756-7.167 3.11-9.78 2.374-4.583 2.042-6.383-.593-3.209"
        fill="#171719" fill-rule="evenodd"></path>
    <path
        d="M247 37.566c0 8.144-.81 10.506-4.77 13.912l-2.544 2.189 8.657 5.701c4.761 3.136 8.657 6.387 8.657 7.226 0 2.218-9.52 11.935-14.624 14.926-4.535 2.658-5.361 4.771-3.341 8.546 1.893 3.537 14.219 2.049 14.775-1.784.411-2.832 2.664-4.595 4.892-3.829 1.852.637 10.506 11.714 12.401 15.874.587 1.289 2.333 3.09 3.881 4.004 2.64 1.56 3.064 1.55 6.881-.159 3.908-1.75 4.008-1.908 2.534-4.012-2.449-3.497-1.398-6.416 3.101-8.615 3.334-1.629 5.583-1.891 13.5-1.572 23.208.934 33.201-.708 38.88-6.386l3.502-3.503-3.894-7.672c-2.293-4.518-3.805-8.837-3.677-10.509.182-2.394-.84-3.71-6.548-8.429-9.329-7.713-16.667-11.103-33.763-15.598-8.32-2.187-11.748-2.417-19.774-1.322-2.706.369-5.305.224-6-.336-.674-.543-2.801-1.319-4.726-1.725-1.925-.405-5.17-1.582-7.21-2.615-2.041-1.033-5.303-1.878-7.25-1.878H247v7.566"
        fill="#0fdddd" fill-rule="evenodd"></path>
    <path xmlns="http://www.w3.org/2000/svg"
        d="M242.085 26.092c-5.679 2.271-11.02 11.155-11.067 18.408-.014 2.2-.907 5.446-1.985 7.214-1.078 1.767-1.56 3.46-1.071 3.762 1.595.986 5.927-1.698 6.236-3.863.234-1.637 1.204-2.234 4.302-2.647 2.2-.294 5.413-1.58 7.139-2.857 2.259-1.67 4.995-2.47 9.75-2.852 3.636-.292 6.611-.919 6.611-1.394 0-.475.666-.863 1.481-.863 2.609 0 2.927-4.618.549-7.958-1.191-1.673-2.553-3.042-3.027-3.042-.473 0-1.587-.727-2.475-1.615-2.933-2.933-11.762-4.164-16.443-2.293M268 42.853c0 .557-.899 1.298-1.998 1.646-3.049.968-7.456 8.197-9.852 16.164-3.096 10.291-8.374 16.675-15.695 18.983C234.547 81.508 230 85.133 230 87.981c0 3.574 3.536 5.263 11.292 5.394 6.672.113 7.848-.178 12.6-3.125 6.112-3.79 6.108-3.789 6.108-1.48 0 .973 2.02 4.46 4.489 7.75 2.47 3.289 4.495 6.362 4.5 6.829.027 2.108 3.377 7.651 4.625 7.651.762 0 1.386-.388 1.386-.861 0-.474 1.049-.661 2.331-.416 3.119.596 9.669-2.23 9.669-4.172 0-.884.86-1.551 2-1.551 2.417 0 2.717-3.16.476-5.02-.838-.696-1.296-1.494-1.016-1.773.279-.28 4.678-.634 9.774-.788 25.532-.771 38.537-1.604 41.149-2.634 3.964-1.564 7.947-10.425 7.024-15.627-1.098-6.192-6.422-15.198-9.991-16.899-5.462-2.605-11.904-.97-17.053 4.328L315.075 70h-13.879c-9.427 0-15.453.478-18.787 1.489-2.7.819-5.246 1.494-5.659 1.5-1.311.019-.737-8.388.75-10.989.786-1.375 1.445-3.953 1.465-5.73.032-2.956-2.433-10.875-3.865-12.415-1.122-1.206-7.1-2.05-7.1-1.002"
        fill="#FFFFFF" fill-rule="evenodd"></path>
    <path xmlns="http://www.w3.org/2000/svg"
        d="M245.81 46.056c-6.965 3.491-8.525 5.873-6.362 9.713.846 1.502 1.998 4.014 2.559 5.583.665 1.859 1.52 2.66 2.456 2.301.789-.303 2.802.131 4.473.965 1.671.834 3.441 1.267 3.932.964 1.346-.832 2.036-5.704 1.141-8.058-.55-1.446-.216-2.785 1.101-4.411 2.298-2.838 2.387-4.958.333-7.89-1.932-2.759-2.582-2.702-9.633.833m-22.611 30.623c-1.174.471-6.199 7.581-6.199 8.772 0 .927 11.135 5.583 12.03 5.03.493-.304 1.354-2.212 1.914-4.239.945-3.425.792-3.919-2.159-6.964-3.293-3.397-3.432-3.462-5.586-2.599"
        fill="#F9D1D1" fill-rule="evenodd"></path>
    <path xmlns="http://www.w3.org/2000/svg"
        d="M253.116 32.82c-1.661 2.587-3.682 6.291-4.493 8.231-1.274 3.05-2.363 3.84-8.059 5.851-7.127 2.516-7.881 3.108-6.975 5.47 1.054 2.747 4.376 3.009 6.992.552 2.976-2.795 4.265-1.864 2.066 1.492-.894 1.364-1.356 3.178-1.029 4.032.709 1.846 4.375 2.099 4.397.302.009-.687.412-1.876.897-2.642.725-1.144 1.432-.999 3.985.818 2.456 1.75 3.103 2.938 3.103 5.701 0 2.313.376 3.259 1.115 2.802.681-.421.921-2.42.615-5.135-.352-3.116-.11-4.595.807-4.947 1.557-.597 2.46-2.566 3.434-7.485.703-3.555.632-3.664-3.126-4.79-2.115-.634-3.845-1.631-3.845-2.217 0-.586 1.35-3.065 3-5.51 3.39-5.023 3.596-5.902 1.567-6.681-.931-.357-2.488 1.096-4.451 4.156m-3.07 12.624c-2.701 3.255 1.769 7.17 4.765 4.174 1.273-1.274 1.404-2.055.565-3.387-1.46-2.318-3.775-2.66-5.33-.787m-96.061 13.565c-1.135.702-.905 1.336 1.183 3.271 2.973 2.755 4.832 5.892 4.832 8.151 0 1.724-6.807 11.337-11.802 16.666-1.754 1.872-3.191 3.928-3.193 4.57-.003.641-.346 1.316-.762 1.5-1.294.569-7.243 8.559-7.243 9.727 0 .608-.54 1.106-1.2 1.106-.898 0-.881.315.067 1.25 1.017 1.003 1.676.692 3.336-1.572 1.137-1.552 4.145-5.092 6.683-7.868 2.538-2.776 5.497-6.456 6.576-8.178 1.078-1.723 2.215-3.357 2.525-3.632 1.716-1.52 7.013-8.943 7.013-9.827 0-.571.9-1.324 2-1.673s2-1.266 2-2.037c0-.771.883-2.975 1.963-4.897 2.834-5.045-.298-6.19-3.77-1.377-1.833 2.541-2.76 2.27-4.209-1.227-1.467-3.542-3.982-5.199-5.999-3.953M136 75.121c0 2.649.136 2.727 3 1.729 1.65-.575 3-1.626 3-2.334 0-.709-1.35-1.487-3-1.729-2.718-.399-3-.18-3 2.334m31-2.353c0 .422 1.078 2.355 2.396 4.294C171.872 80.705 176 93.081 176 96.858c0 1.178.36 2.142.799 2.142.918 0 .63-4.649-.875-14.097-.79-4.959-1.765-7.378-3.931-9.75-2.729-2.988-4.993-4.069-4.993-2.385m51 14.545c0 .722-1.238 2.449-2.75 3.839-5.728 5.261-12.84 8.567-24.642 11.454-11.164 2.731-14.091 4.311-11.949 6.453 1.36 1.36 16.439-2.04 30.341-6.84 2.583-.892 6-3.186 8.022-5.387 1.937-2.107 3.911-3.832 4.388-3.832 1.295 0-.224 10.786-1.874 13.309-.789 1.205-2.591 6.916-4.007 12.691-3.527 14.395-6.613 24.378-7.765 25.121-.588.378-.405 1.686.467 3.35 1.411 2.693 1.465 2.604 4.035-6.621 1.433-5.142 3.127-12.05 3.764-15.35.637-3.3 1.791-6.997 2.564-8.215.773-1.218 1.406-2.905 1.406-3.75 0-.844.509-1.535 1.131-1.535 1.139 0 1.024 1.176-1.078 11-1.372 6.409-2.564 35.003-1.458 34.985.498-.009 1.383-.346 1.968-.75 1.058-.731 2.88-19.306 4.045-41.235.538-10.138.916-11.953 3.19-15.326 1.418-2.104 3.657-4.673 4.974-5.709 2.397-1.886 2.282-3.965-.218-3.965-.731 0-2.392 1.346-3.691 2.991-3.113 3.941-4.1 3.79-3.295-.503.613-3.266.441-3.589-2.454-4.598-1.713-.597-3.114-1.492-3.114-1.988s-.45-.902-1-.902-1 .591-1 1.313m42.007 8.437c.004 1.513.904 6.491 2 11.063 2.193 9.148 2.541 20.22.943 30.062-1.502 9.261-.772 9.822 15.55 11.968l5 .657.667 5.5c1.592 13.128 2.846 21.212 3.439 22.172.351.567 1.008 4.332 1.46 8.366.452 4.034 1.304 9.121 1.891 11.303l1.069 3.969 6.545-2.128c5.742-1.866 6.465-2.377 5.885-4.155-1.732-5.319-3.835-19.005-6.111-39.777l-.63-5.75 2.893-.015c2.649-.014 12.653-2.28 22.813-5.166 5.574-1.584 8.575-4.461 8.596-8.243.031-5.391 2.748-19.948 4.576-24.518 1.018-2.542 1.796-7.196 1.837-10.975l.07-6.562-7.5-.264c-4.125-.145-12.511.421-18.635 1.258-7.956 1.088-11.901 1.232-13.816.504-3.904-1.485-12.505-1.298-13.112.284-.275.716.195 2.966 1.045 5 .85 2.033 1.281 3.697.959 3.697-.322 0 .347 1.186 1.486 2.635 1.14 1.449 2.073 3.182 2.073 3.851s1.186 3.421 2.636 6.115c4.524 8.407 6.392 18.301 3.854 20.407-1.138.945-2.135.968-4.239.099-1.513-.625-5.43-1.571-8.704-2.102-9.527-1.546-13-7.005-4.457-7.005 6.417 0 6.228-4.507-.462-11-1.984-1.925-3.611-4.469-3.617-5.653-.007-1.284-2.078-4.11-5.131-7-2.816-2.666-5.747-6.31-6.514-8.097-1.733-4.044-4.369-4.347-4.359-.5"
        fill="#000000" fill-rule="evenodd"></path>
</svg>